<svg width="26" height="26" viewBox="0 0 26 26" fill="none" xmlns="http://www.w3.org/2000/svg">
<g clip-path="url(#clip0_8_23)">
<path d="M4.72034 11.5535C3.8515 11.5535 3.15015 12.2548 3.15015 13.1237C3.15015 13.9925 3.8515 14.6938 4.72034 14.6938C5.58917 14.6938 6.29053 13.9925 6.29053 13.1237C6.29053 12.2548 5.58917 11.5535 4.72034 11.5535ZM4.72034 5.27271C3.8515 5.27271 3.15015 5.97406 3.15015 6.8429C3.15015 7.71173 3.8515 8.41309 4.72034 8.41309C5.58917 8.41309 6.29053 7.71173 6.29053 6.8429C6.29053 5.97406 5.58917 5.27271 4.72034 5.27271ZM4.72034 17.8342C3.8515 17.8342 3.15015 18.546 3.15015 19.4044C3.15015 20.2628 3.86197 20.9746 4.72034 20.9746C5.57871 20.9746 6.29053 20.2628 6.29053 19.4044C6.29053 18.546 5.58917 17.8342 4.72034 17.8342ZM7.86072 20.4512H22.5158V18.3576H7.86072V20.4512ZM7.86072 14.1704H22.5158V12.0769H7.86072V14.1704ZM7.86072 5.7961V7.88969H22.5158V5.7961H7.86072Z" fill="#808080"/>
</g>
<defs>
<clipPath id="clip0_8_23">
<rect width="25.123" height="25.123" fill="white" transform="translate(0.532471 0.561523)"/>
</clipPath>
</defs>
</svg>
